<mxfile host="65bd71144e">
    <diagram id="4e-ixdnpUFKEX0q-kq7q" name="Page-1">
        <mxGraphModel dx="742" dy="659" grid="1" gridSize="10" guides="1" tooltips="1" connect="1" arrows="1" fold="1" page="1" pageScale="1" pageWidth="850" pageHeight="1100" math="0" shadow="0">
            <root>
                <mxCell id="0"/>
                <mxCell id="1" parent="0"/>
                <mxCell id="4" value="" style="group" vertex="1" connectable="0" parent="1">
                    <mxGeometry x="80" y="80" width="60" height="70" as="geometry"/>
                </mxCell>
                <mxCell id="2" value="" style="ellipse;whiteSpace=wrap;html=1;aspect=fixed;fillColor=#000000;" vertex="1" parent="4">
                    <mxGeometry x="10" width="40" height="40" as="geometry"/>
                </mxCell>
                <mxCell id="3" value="GameState::Splash" style="text;html=1;align=center;verticalAlign=middle;whiteSpace=wrap;rounded=0;" vertex="1" parent="4">
                    <mxGeometry y="40" width="60" height="30" as="geometry"/>
                </mxCell>
                <mxCell id="5" value="" style="group" vertex="1" connectable="0" parent="1">
                    <mxGeometry x="360" y="80" width="60" height="70" as="geometry"/>
                </mxCell>
                <mxCell id="6" value="" style="ellipse;whiteSpace=wrap;html=1;aspect=fixed;fillColor=#000000;" vertex="1" parent="5">
                    <mxGeometry x="10" width="40" height="40" as="geometry"/>
                </mxCell>
                <mxCell id="7" value="GameState::MainMenu" style="text;html=1;align=center;verticalAlign=middle;whiteSpace=wrap;rounded=0;" vertex="1" parent="5">
                    <mxGeometry y="40" width="60" height="30" as="geometry"/>
                </mxCell>
                <mxCell id="8" value="" style="group" vertex="1" connectable="0" parent="1">
                    <mxGeometry x="640" y="80" width="60" height="70" as="geometry"/>
                </mxCell>
                <mxCell id="9" value="" style="ellipse;whiteSpace=wrap;html=1;aspect=fixed;fillColor=#000000;" vertex="1" parent="8">
                    <mxGeometry x="10" width="40" height="40" as="geometry"/>
                </mxCell>
                <mxCell id="10" value="GameState::InGame" style="text;html=1;align=center;verticalAlign=middle;whiteSpace=wrap;rounded=0;" vertex="1" parent="8">
                    <mxGeometry y="40" width="60" height="30" as="geometry"/>
                </mxCell>
                <mxCell id="13" value="" style="endArrow=classic;html=1;entryX=0;entryY=0.5;entryDx=0;entryDy=0;exitX=1;exitY=0.5;exitDx=0;exitDy=0;" edge="1" parent="1" source="2" target="6">
                    <mxGeometry width="50" height="50" relative="1" as="geometry">
                        <mxPoint x="130" y="79" as="sourcePoint"/>
                        <mxPoint x="370" y="79" as="targetPoint"/>
                    </mxGeometry>
                </mxCell>
                <mxCell id="14" value="" style="endArrow=classic;startArrow=classic;html=1;exitX=0;exitY=0.5;exitDx=0;exitDy=0;entryX=1;entryY=0.5;entryDx=0;entryDy=0;" edge="1" parent="1" source="9" target="6">
                    <mxGeometry width="50" height="50" relative="1" as="geometry">
                        <mxPoint x="310" y="360" as="sourcePoint"/>
                        <mxPoint x="410" y="100" as="targetPoint"/>
                    </mxGeometry>
                </mxCell>
                <mxCell id="15" value="" style="group" vertex="1" connectable="0" parent="1">
                    <mxGeometry x="80" y="240" width="60" height="70" as="geometry"/>
                </mxCell>
                <mxCell id="16" value="" style="ellipse;whiteSpace=wrap;html=1;aspect=fixed;fillColor=#000000;" vertex="1" parent="15">
                    <mxGeometry x="10" width="40" height="40" as="geometry"/>
                </mxCell>
                <mxCell id="17" value="MenuState::Disabled" style="text;html=1;align=center;verticalAlign=middle;whiteSpace=wrap;rounded=0;" vertex="1" parent="15">
                    <mxGeometry y="40" width="60" height="30" as="geometry"/>
                </mxCell>
            </root>
        </mxGraphModel>
    </diagram>
</mxfile>